<svg width="100" height="100" viewBox="0 0 100 100" fill="none" xmlns="http://www.w3.org/2000/svg">
  <!-- Green circle with people -->
  <path d="M50 5C25.15 5 5 25.15 5 50C5 74.85 25.15 95 50 95C74.85 95 95 74.85 95 50C95 25.15 74.85 5 50 5Z" fill="transparent" />
  
  <!-- Individual circles and connectors representing people around the circle -->
  <circle cx="50" cy="15" r="5" fill="#2E8B57" />
  <path d="M62 18 L70 10" stroke="#2E8B57" stroke-width="5" stroke-linecap="round" />
  
  <circle cx="75" cy="25" r="5" fill="#2E8B57" />
  <path d="M82 37 L90 32" stroke="#2E8B57" stroke-width="5" stroke-linecap="round" />
  
  <circle cx="85" cy="50" r="5" fill="#2E8B57" />
  <path d="M82 63 L90 68" stroke="#2E8B57" stroke-width="5" stroke-linecap="round" />
  
  <circle cx="75" cy="75" r="5" fill="#2E8B57" />
  <path d="M62 82 L70 90" stroke="#2E8B57" stroke-width="5" stroke-linecap="round" />
  
  <circle cx="50" cy="85" r="5" fill="#2E8B57" />
  <path d="M38 82 L30 90" stroke="#2E8B57" stroke-width="5" stroke-linecap="round" />
  
  <circle cx="25" cy="75" r="5" fill="#2E8B57" />
  <path d="M18 63 L10 68" stroke="#2E8B57" stroke-width="5" stroke-linecap="round" />
  
  <circle cx="15" cy="50" r="5" fill="#2E8B57" />
  <path d="M18 37 L10 32" stroke="#2E8B57" stroke-width="5" stroke-linecap="round" />
  
  <circle cx="25" cy="25" r="5" fill="#2E8B57" />
  <path d="M38 18 L30 10" stroke="#2E8B57" stroke-width="5" stroke-linecap="round" />
  
  <!-- Gold circle in the center -->
  <circle cx="50" cy="50" r="25" fill="#DAA520" />
  
  <!-- Subtle coin details -->
  <circle cx="50" cy="50" r="22" fill="#DAA520" stroke="#C09217" stroke-width="1" />
  <circle cx="50" cy="50" r="19" fill="#E8B423" stroke="#C09217" stroke-width="0.5" opacity="0.7" />
  
  <!-- Arabic style د.م. (dirhams and centimes) in the center -->
  <path d="M43 47.5C43 46.12 43.43 45.05 44.3 44.29C45.17 43.53 46.31 43.15 47.74 43.15C49.16 43.15 50.29 43.53 51.14 44.29C51.99 45.05 52.42 46.12 52.42 47.5C52.42 48.88 51.99 49.95 51.14 50.71C50.29 51.47 49.16 51.85 47.74 51.85C46.31 51.85 45.17 51.47 44.3 50.71C43.43 49.95 43 48.88 43 47.5Z" stroke="#004D40" stroke-width="1.5"/>
  <path d="M55 55.5C55 54.12 55.43 53.05 56.3 52.29C57.17 51.53 58.31 51.15 59.74 51.15C61.16 51.15 62.29 51.53 63.14 52.29C63.99 53.05 64.42 54.12 64.42 55.5C64.42 56.88 63.99 57.95 63.14 58.71C62.29 59.47 61.16 59.85 59.74 59.85C58.31 59.85 57.17 59.47 56.3 58.71C55.43 57.95 55 56.88 55 55.5Z" stroke="#004D40" stroke-width="1.5"/>
</svg>